<svg width="703" height="145" viewBox="0 0 703 145" fill="none" xmlns="http://www.w3.org/2000/svg">
<path d="M469.795 145H9.31141C4.20516 145 0 140.856 0 135.823V44.553C0 39.6685 1.95241 34.9319 5.55682 31.5276L31.9891 5.47662C35.5935 1.92421 40.2492 0 45.2053 0H505.689C510.795 0 515 4.14447 515 9.17704V100.447C515 105.331 513.048 110.068 509.443 113.472L483.011 139.523C479.406 143.076 474.751 145 469.795 145Z" fill="#00B2BA"/>
<path d="M469.795 145H9.31141C4.20516 145 0 140.856 0 135.823V44.553C0 39.6685 1.95241 34.9319 5.55682 31.5276L31.9891 5.47662C35.5935 1.92421 40.2492 0 45.2053 0H505.689C510.795 0 515 4.14447 515 9.17704V100.447C515 105.331 513.048 110.068 509.443 113.472L483.011 139.523C479.406 143.076 474.751 145 469.795 145Z" fill="url(#paint0_linear)"/>
<path d="M164.1 93.146C164.1 97.7 167.246 101.264 172.064 101.264C174.814 101.264 176.75 100.12 178.07 98.8L176.904 97.238C175.65 98.492 173.868 99.262 172.13 99.262C168.522 99.262 166.344 96.424 166.344 93.124C166.344 89.846 168.478 87.184 172.086 87.184C173.692 87.184 175.43 87.866 176.574 88.878L177.674 87.25C176.178 85.82 174 85.204 171.998 85.204C167.378 85.204 164.1 88.636 164.1 93.146ZM184.6 101H186.822L188.384 96.534H194.236L195.798 101H198.042L192.476 85.468H190.166L184.6 101ZM188.956 94.73L190.694 89.824C190.958 89.01 191.288 87.602 191.288 87.602H191.332C191.332 87.602 191.684 89.01 191.948 89.824L193.664 94.73H188.956ZM200.013 101H202.147V96.226H207.779V101H209.913V89.868H207.779V94.4H202.147V89.868H200.013V101ZM212.281 97.964C212.281 100.054 214.063 101.264 215.999 101.264C217.649 101.264 219.013 100.274 219.651 98.998H219.695C219.695 98.998 219.629 99.372 219.629 99.878V101H221.631V93.96C221.631 91.144 220.025 89.604 217.231 89.604C215.669 89.604 213.975 90.176 213.073 90.924L213.931 92.486C214.833 91.848 215.955 91.408 217.055 91.408C218.441 91.408 219.497 92.024 219.497 93.85V94.07H218.925C216.615 94.07 212.281 94.466 212.281 97.964ZM214.415 97.788C214.415 95.742 217.363 95.61 218.947 95.61H219.497V96.028C219.497 97.678 218.375 99.57 216.505 99.57C215.119 99.57 214.415 98.668 214.415 97.788ZM224.059 95.434C224.059 98.778 226.501 101.264 230.021 101.264C231.759 101.264 233.453 100.56 234.465 99.482L233.607 97.92C232.749 98.822 231.407 99.416 230.175 99.416C227.865 99.416 226.237 97.678 226.237 95.412C226.237 93.146 227.865 91.452 230.109 91.452C231.275 91.452 232.441 91.98 233.189 92.728L234.201 91.232C233.145 90.11 231.495 89.604 230.021 89.604C226.523 89.604 224.059 92.134 224.059 95.434ZM239.457 101H241.569V91.694H245.463V89.868H235.585V91.694H239.457V101ZM246.527 97.964C246.527 100.054 248.309 101.264 250.245 101.264C251.895 101.264 253.259 100.274 253.897 98.998H253.941C253.941 98.998 253.875 99.372 253.875 99.878V101H255.877V93.96C255.877 91.144 254.271 89.604 251.477 89.604C249.915 89.604 248.221 90.176 247.319 90.924L248.177 92.486C249.079 91.848 250.201 91.408 251.301 91.408C252.687 91.408 253.743 92.024 253.743 93.85V94.07H253.171C250.861 94.07 246.527 94.466 246.527 97.964ZM248.661 97.788C248.661 95.742 251.609 95.61 253.193 95.61H253.743V96.028C253.743 97.678 252.621 99.57 250.751 99.57C249.365 99.57 248.661 98.668 248.661 97.788ZM258.305 95.434C258.305 98.778 260.747 101.264 264.267 101.264C266.005 101.264 267.699 100.56 268.711 99.482L267.853 97.92C266.995 98.822 265.653 99.416 264.421 99.416C262.111 99.416 260.483 97.678 260.483 95.412C260.483 93.146 262.111 91.452 264.355 91.452C265.521 91.452 266.687 91.98 267.435 92.728L268.447 91.232C267.391 90.11 265.741 89.604 264.267 89.604C260.769 89.604 258.305 92.134 258.305 95.434ZM271.019 101H273.065L277.883 94.356C278.235 93.828 278.785 93.08 278.851 92.882H278.895C278.895 93.058 278.829 93.828 278.829 94.356V101H280.897V89.868H278.829L274.033 96.512C273.659 97.04 273.131 97.81 273.043 98.008H272.999C273.021 97.898 273.065 97.106 273.065 96.512V89.868H271.019V101ZM283.442 95.434C283.442 98.734 285.862 101.264 289.36 101.264C290.9 101.264 292.594 100.67 293.672 99.68L292.77 98.118C291.89 98.91 290.68 99.416 289.492 99.416C287.49 99.416 285.774 98.118 285.664 95.72H293.76C293.804 95.412 293.848 95.104 293.848 94.818C293.848 91.958 292.176 89.604 289.03 89.604C285.862 89.604 283.442 91.892 283.442 95.434ZM285.73 94.18C286.038 92.332 287.336 91.254 288.986 91.254C290.438 91.254 291.626 92.266 291.692 94.18H285.73ZM301.32 88.592C303.036 88.592 304.576 87.58 304.576 85.776V85.446H302.882V85.732C302.882 86.722 302.09 87.206 301.32 87.206C300.55 87.206 299.78 86.722 299.78 85.754V85.446H298.064V85.776C298.064 87.58 299.626 88.592 301.32 88.592ZM296.414 101H298.46L303.278 94.356C303.63 93.828 304.18 93.08 304.246 92.882H304.29C304.29 93.058 304.224 93.828 304.224 94.356V101H306.292V89.868H304.224L299.428 96.512C299.054 97.04 298.526 97.81 298.438 98.008H298.394C298.416 97.898 298.46 97.106 298.46 96.512V89.868H296.414V101ZM315.458 101H317.636V87.36H324.016V85.468H315.458V101ZM322.457 95.412C322.457 98.8 325.141 101.264 328.463 101.264C331.763 101.264 334.447 98.8 334.447 95.412C334.447 92.046 331.763 89.604 328.441 89.604C325.141 89.604 322.457 92.046 322.457 95.412ZM324.635 95.412C324.635 93.102 326.351 91.452 328.463 91.452C330.553 91.452 332.291 93.102 332.291 95.412C332.291 97.744 330.553 99.416 328.463 99.416C326.351 99.416 324.635 97.744 324.635 95.412ZM337.019 105.4H339.153V100.34C339.153 99.768 339.065 99.372 339.065 99.372H339.109C339.879 100.56 341.155 101.264 342.563 101.264C345.489 101.264 347.601 98.976 347.601 95.434C347.601 91.98 345.731 89.604 342.717 89.604C341.089 89.604 339.681 90.352 338.977 91.694H338.933C338.933 91.694 338.999 91.32 338.999 90.858V89.868H337.019V105.4ZM339.087 95.478C339.087 92.662 340.627 91.474 342.299 91.474C344.147 91.474 345.445 93.036 345.445 95.456C345.445 97.986 343.993 99.416 342.233 99.416C340.187 99.416 339.087 97.458 339.087 95.478ZM352.195 99.24C353.603 97.04 353.779 93.872 353.779 92.2V91.606H357.123V99.24H352.195ZM348.631 99.24V103.64H350.633V101H358.883V103.64H360.841V99.24H359.257V89.868H351.733V91.914C351.733 93.63 351.557 97.106 349.995 99.24H348.631ZM362.225 95.434C362.225 98.734 364.645 101.264 368.143 101.264C369.683 101.264 371.377 100.67 372.455 99.68L371.553 98.118C370.673 98.91 369.463 99.416 368.275 99.416C366.273 99.416 364.557 98.118 364.447 95.72H372.543C372.587 95.412 372.631 95.104 372.631 94.818C372.631 91.958 370.959 89.604 367.813 89.604C364.645 89.604 362.225 91.892 362.225 95.434ZM364.513 94.18C364.821 92.332 366.119 91.254 367.769 91.254C369.221 91.254 370.409 92.266 370.475 94.18H364.513ZM374.471 95.434C374.471 98.734 376.891 101.264 380.389 101.264C381.929 101.264 383.623 100.67 384.701 99.68L383.799 98.118C382.919 98.91 381.709 99.416 380.521 99.416C378.519 99.416 376.803 98.118 376.693 95.72H384.789C384.833 95.412 384.877 95.104 384.877 94.818C384.877 91.958 383.205 89.604 380.059 89.604C376.891 89.604 374.471 91.892 374.471 95.434ZM376.759 94.18C377.067 92.332 378.365 91.254 380.015 91.254C381.467 91.254 382.655 92.266 382.721 94.18H376.759ZM387.443 101H392.195C394.615 101 396.287 99.9 396.287 97.832C396.287 96.6 395.561 95.522 394.175 95.192V95.17C395.187 94.73 395.759 93.806 395.759 92.728C395.759 90.858 394.285 89.868 392.041 89.868H387.443V101ZM389.577 94.576V91.342H391.601C392.943 91.342 393.581 91.87 393.581 92.882C393.581 93.916 392.943 94.576 391.667 94.576H389.577ZM389.577 99.504V96.006H391.843C393.317 96.006 394.131 96.666 394.131 97.766C394.131 98.8 393.405 99.504 391.865 99.504H389.577ZM398.147 95.412C398.147 98.8 400.831 101.264 404.153 101.264C407.453 101.264 410.137 98.8 410.137 95.412C410.137 92.046 407.453 89.604 404.131 89.604C400.831 89.604 398.147 92.046 398.147 95.412ZM400.325 95.412C400.325 93.102 402.041 91.452 404.153 91.452C406.243 91.452 407.981 93.102 407.981 95.412C407.981 97.744 406.243 99.416 404.153 99.416C402.041 99.416 400.325 97.744 400.325 95.412ZM417.615 88.592C419.331 88.592 420.871 87.58 420.871 85.776V85.446H419.177V85.732C419.177 86.722 418.385 87.206 417.615 87.206C416.845 87.206 416.075 86.722 416.075 85.754V85.446H414.359V85.776C414.359 87.58 415.921 88.592 417.615 88.592ZM412.709 101H414.755L419.573 94.356C419.925 93.828 420.475 93.08 420.541 92.882H420.585C420.585 93.058 420.519 93.828 420.519 94.356V101H422.587V89.868H420.519L415.723 96.512C415.349 97.04 414.821 97.81 414.733 98.008H414.689C414.711 97.898 414.755 97.106 414.755 96.512V89.868H412.709V101Z" fill="#F5F5F5"/>
<path d="M183.128 64H173.688C170.488 64 168.12 63.136 166.584 61.408C165.048 59.68 164.28 56.9173 164.28 53.12C164.28 49.024 165.005 46.1227 166.456 44.416C168.056 42.5387 170.499 41.6 173.784 41.6H182.776V44.96H175.768C174.275 44.96 173.144 45.0667 172.376 45.28C171.288 45.5787 170.456 46.1653 169.88 47.04C169.048 48.2773 168.632 50.2827 168.632 53.056C168.632 55.5947 168.984 57.408 169.688 58.496C170.627 59.9253 172.579 60.64 175.544 60.64H183.128V64ZM206.494 64H202.75L202.91 51.712C202.91 51.4987 202.846 51.392 202.718 51.392C202.654 51.392 202.558 51.52 202.43 51.776L198.11 62.784C197.747 63.7227 197.022 64.192 195.934 64.192C194.846 64.192 194.12 63.7227 193.758 62.784L189.406 51.776C189.32 51.5413 189.235 51.424 189.15 51.424C189.022 51.424 188.958 51.52 188.958 51.712L189.118 64H185.374V49.28C185.374 48.4907 185.672 47.872 186.27 47.424C186.782 47.04 187.454 46.848 188.286 46.848C189.715 46.848 190.675 47.456 191.166 48.672L195.454 59.456C195.624 59.904 195.784 60.128 195.934 60.128C196.083 60.128 196.243 59.904 196.414 59.456L200.702 48.672C201.192 47.456 202.152 46.848 203.582 46.848C204.414 46.848 205.096 47.04 205.63 47.424C206.206 47.872 206.494 48.4907 206.494 49.28V64ZM226.661 55.456C226.661 58.6987 225.936 61.0027 224.485 62.368C223.184 63.584 220.901 64.192 217.637 64.192C214.395 64.192 212.112 63.584 210.789 62.368C209.339 61.0453 208.613 58.784 208.613 55.584C208.613 52.2987 209.339 49.984 210.789 48.64C212.069 47.4453 214.352 46.848 217.637 46.848C220.923 46.848 223.205 47.4453 224.485 48.64C225.936 49.984 226.661 52.256 226.661 55.456ZM222.789 55.552C222.789 53.376 222.427 51.8827 221.701 51.072C220.891 50.176 219.536 49.728 217.637 49.728C215.675 49.728 214.309 50.176 213.541 51.072C212.837 51.8827 212.485 53.376 212.485 55.552C212.485 57.6213 212.848 59.072 213.573 59.904C214.384 60.8427 215.739 61.312 217.637 61.312C219.493 61.312 220.837 60.8427 221.669 59.904C222.416 59.072 222.789 57.6213 222.789 55.552ZM243.98 49.92H237.612V64H233.868V49.92H227.5V47.04H243.98V49.92ZM261.025 55.168C261.025 58.1547 260.577 60.288 259.681 61.568C258.55 63.1893 256.566 64 253.729 64H248.993V69.44H245.249V49.664C245.249 48.768 245.569 48.0747 246.209 47.584C246.678 47.2213 247.382 47.04 248.321 47.04H254.241C256.374 47.04 258.038 47.6587 259.233 48.896C260.427 50.1333 261.025 52.224 261.025 55.168ZM257.153 55.488C257.153 53.7387 257.003 52.5227 256.705 51.84C256.15 50.56 255.062 49.92 253.441 49.92H249.761C249.611 49.92 249.441 50.0053 249.249 50.176C249.078 50.3253 248.993 50.5067 248.993 50.72V61.12H253.249C254.699 61.12 255.766 60.5973 256.449 59.552C256.918 58.8267 257.153 57.472 257.153 55.488ZM279.732 64H275.988L276.116 51.936C276.116 51.6373 276.052 51.488 275.924 51.488C275.838 51.488 275.689 51.6373 275.476 51.936L268.02 62.848C267.401 63.744 266.59 64.192 265.588 64.192C263.945 64.192 263.124 63.392 263.124 61.792V47.04H266.868L266.708 59.104C266.708 59.4027 266.793 59.552 266.964 59.552C267.049 59.552 267.198 59.4027 267.412 59.104L274.964 48C275.476 47.232 276.244 46.848 277.268 46.848C278.91 46.848 279.732 47.712 279.732 49.44V64ZM297.48 49.92H291.112V64H287.368V49.92H281V47.04H297.48V49.92ZM314.653 53.568C314.653 54.7413 314.386 55.5947 313.853 56.128C313.426 56.5547 312.818 56.768 312.029 56.768H302.173C302.173 57.7493 302.247 58.528 302.397 59.104C302.738 60.448 303.879 61.12 305.821 61.12H314.109V64H304.701C302.247 64 300.519 63.2853 299.517 61.856C298.706 60.704 298.301 58.6453 298.301 55.68C298.301 53.824 298.407 52.448 298.621 51.552C298.898 50.2933 299.463 49.3013 300.317 48.576C301.554 47.5093 303.666 46.976 306.653 46.976C309.234 46.976 311.101 47.3387 312.253 48.064C313.853 49.0667 314.653 50.9013 314.653 53.568ZM310.781 52.896C310.781 51.936 310.429 51.1893 309.725 50.656C309.021 50.1227 307.943 49.856 306.493 49.856C304.786 49.856 303.602 50.2293 302.941 50.976C302.471 51.5093 302.215 52.48 302.173 53.888H309.949C310.503 53.888 310.781 53.5573 310.781 52.896ZM340.857 64H337.113L337.241 51.936C337.241 51.6373 337.177 51.488 337.049 51.488C336.963 51.488 336.814 51.6373 336.601 51.936L329.145 62.848C328.526 63.744 327.715 64.192 326.713 64.192C325.07 64.192 324.249 63.392 324.249 61.792V47.04H327.993L327.833 59.104C327.833 59.4027 327.918 59.552 328.089 59.552C328.174 59.552 328.323 59.4027 328.537 59.104L336.089 48C336.601 47.232 337.369 46.848 338.393 46.848C340.035 46.848 340.857 47.712 340.857 49.44V64ZM358.989 64H355.245V56.704H347.149V64H343.405V47.04H347.149V53.824H355.245V47.04H358.989V64ZM376.761 49.92H370.393V64H366.649V49.92H360.281V47.04H376.761V49.92ZM393.934 53.568C393.934 54.7413 393.667 55.5947 393.134 56.128C392.707 56.5547 392.099 56.768 391.31 56.768H381.454C381.454 57.7493 381.529 58.528 381.678 59.104C382.019 60.448 383.161 61.12 385.102 61.12H393.39V64H383.982C381.529 64 379.801 63.2853 378.798 61.856C377.987 60.704 377.582 58.6453 377.582 55.68C377.582 53.824 377.689 52.448 377.902 51.552C378.179 50.2933 378.745 49.3013 379.598 48.576C380.835 47.5093 382.947 46.976 385.934 46.976C388.515 46.976 390.382 47.3387 391.534 48.064C393.134 49.0667 393.934 50.9013 393.934 53.568ZM390.062 52.896C390.062 51.936 389.71 51.1893 389.006 50.656C388.302 50.1227 387.225 49.856 385.774 49.856C384.067 49.856 382.883 50.2293 382.222 50.976C381.753 51.5093 381.497 52.48 381.454 53.888H389.23C389.785 53.888 390.062 53.5573 390.062 52.896ZM411.837 55.168C411.837 58.1547 411.389 60.288 410.493 61.568C409.363 63.1893 407.379 64 404.541 64H399.805V69.44H396.061V49.664C396.061 48.768 396.381 48.0747 397.021 47.584C397.491 47.2213 398.195 47.04 399.133 47.04H405.053C407.187 47.04 408.851 47.6587 410.045 48.896C411.24 50.1333 411.837 52.224 411.837 55.168ZM407.965 55.488C407.965 53.7387 407.816 52.5227 407.517 51.84C406.963 50.56 405.875 49.92 404.253 49.92H400.573C400.424 49.92 400.253 50.0053 400.061 50.176C399.891 50.3253 399.805 50.5067 399.805 50.72V61.12H404.061C405.512 61.12 406.579 60.5973 407.261 59.552C407.731 58.8267 407.965 57.472 407.965 55.488ZM429.456 59.2C429.456 60.928 429.083 62.1653 428.336 62.912C427.611 63.6373 426.459 64 424.88 64H416.816C415.771 64 415.024 63.808 414.576 63.424C414.15 63.0187 413.936 62.3787 413.936 61.504V49.696C413.936 48.8213 414.192 48.16 414.704 47.712C415.216 47.264 415.974 47.04 416.976 47.04H424.656C426.512 47.04 427.792 47.4453 428.496 48.256C429.094 48.9387 429.392 49.984 429.392 51.392C429.392 52.6933 429.136 53.632 428.624 54.208C428.134 54.7627 427.462 55.0933 426.608 55.2V55.264C427.504 55.3707 428.198 55.744 428.688 56.384C429.2 57.0027 429.456 57.9413 429.456 59.2ZM425.52 51.872C425.52 51.1467 425.35 50.6453 425.008 50.368C424.688 50.0693 424.198 49.92 423.536 49.92H418.608C418.288 49.92 418.054 49.984 417.904 50.112C417.755 50.24 417.68 50.4533 417.68 50.752V53.792H423.472C424.176 53.792 424.688 53.632 425.008 53.312C425.35 52.9707 425.52 52.4907 425.52 51.872ZM425.584 58.816C425.584 58.0693 425.424 57.5253 425.104 57.184C424.784 56.8427 424.262 56.672 423.536 56.672H417.68V60.096C417.68 60.416 417.744 60.672 417.872 60.864C418.022 61.0347 418.288 61.12 418.672 61.12H423.344C424.155 61.12 424.731 60.9493 425.072 60.608C425.414 60.2667 425.584 59.6693 425.584 58.816ZM447.241 58.912C447.241 60.9387 446.815 62.336 445.961 63.104C445.3 63.7013 444.212 64 442.697 64H434.089C433.257 64 432.628 63.7973 432.201 63.392C431.775 62.9867 431.561 62.3253 431.561 61.408V47.04H435.305V53.472H442.953C444.319 53.472 445.375 53.8987 446.121 54.752C446.868 55.6053 447.241 56.992 447.241 58.912ZM443.369 58.688C443.369 57.8133 443.209 57.2053 442.889 56.864C442.591 56.5227 442.089 56.352 441.385 56.352H435.305V59.936C435.305 60.4053 435.38 60.7253 435.529 60.896C435.7 61.0453 435.977 61.12 436.361 61.12H441.257C442.047 61.12 442.591 60.9493 442.889 60.608C443.209 60.2453 443.369 59.6053 443.369 58.688ZM473.375 55.36C473.375 58.6667 472.671 61.0027 471.263 62.368C470.004 63.584 467.732 64.192 464.447 64.192C461.268 64.192 459.007 63.584 457.663 62.368C456.169 61.024 455.476 59.136 455.583 56.704H453.087V64H449.343V47.04H453.087V53.824H455.583C455.711 51.4773 456.415 49.728 457.695 48.576C458.996 47.424 461.247 46.848 464.447 46.848C467.753 46.848 470.025 47.4347 471.263 48.608C472.671 49.9307 473.375 52.1813 473.375 55.36ZM469.503 55.456C469.503 53.344 469.193 51.8933 468.575 51.104C467.849 50.1867 466.473 49.728 464.447 49.728C462.42 49.728 461.055 50.1867 460.351 51.104C459.753 51.8933 459.455 53.4293 459.455 55.712C459.455 57.6747 459.764 59.0613 460.383 59.872C461.108 60.832 462.463 61.312 464.447 61.312C466.431 61.312 467.796 60.832 468.543 59.872C469.183 59.0613 469.503 57.5893 469.503 55.456Z" fill="#F5F5F5"/>
<path d="M109.783 68.2949C112.662 70.0484 112.662 74.2274 109.783 75.981L64.3411 103.664C61.3424 105.491 57.5 103.332 57.5 99.8211L57.5 44.4548C57.5 40.9434 61.3424 38.7849 64.3411 40.6117L109.783 68.2949Z" fill="white" stroke="white" stroke-width="3"/>
<defs>
<linearGradient id="paint0_linear" x1="515" y1="5.00002" x2="58.5001" y2="145" gradientUnits="userSpaceOnUse">
<stop stop-color="white" stop-opacity="0.45"/>
<stop offset="1" stop-color="white" stop-opacity="0"/>
</linearGradient>
</defs>
</svg>
