<svg width="232" height="66" viewBox="0 0 232 66" fill="none" xmlns="http://www.w3.org/2000/svg">
<path d="M176.95 61H31.1898C27.7954 61 25 58.2443 25 54.8981V34.6239C25 31.3761 26.2979 28.2267 28.6939 25.9631L46.2649 8.64147C48.661 6.27943 51.7559 5 55.0504 5H200.81C204.205 5 207 7.75571 207 11.1019V31.3761C207 34.6239 205.702 37.7733 203.306 40.0369L185.735 57.3585C183.339 59.7206 180.244 61 176.95 61Z" stroke="#CCCCCC" stroke-width="3" stroke-miterlimit="10"/>
<path d="M71.6234 32.6C71.6234 35.735 73.9934 38.18 77.1284 38.18C80.2634 38.18 82.6334 35.735 82.6334 32.6C82.6334 29.555 80.2634 27.17 77.1284 27.17C73.9934 27.17 71.6234 29.555 71.6234 32.6ZM73.6184 32.6C73.6184 30.53 75.1784 28.94 77.1284 28.94C79.0784 28.94 80.6384 30.53 80.6384 32.6C80.6384 34.76 79.0784 36.41 77.1284 36.41C75.1784 36.41 73.6184 34.76 73.6184 32.6ZM86.6215 38H88.5415V29.015H92.0365V27.35H83.1265V29.015H86.6215V38ZM93.5522 38H95.4872V29.015H100.242V38H102.177V27.35H93.5522V38ZM104.758 38H106.693V34.325H108.868C110.863 34.325 112.258 32.885 112.258 30.815C112.258 28.745 110.863 27.35 108.868 27.35H104.758V38ZM106.693 32.645V29.015H108.538C109.633 29.015 110.293 29.72 110.293 30.815C110.293 31.925 109.633 32.645 108.508 32.645H106.693ZM112.231 38H114.211L115.111 35.27H118.846L119.761 38H121.741L118.006 27.35H115.966L112.231 38ZM115.591 33.695L116.551 30.845C116.731 30.245 116.971 29.195 116.971 29.195H117.001C117.001 29.195 117.241 30.245 117.421 30.845L118.366 33.695H115.591ZM123.157 38H127.012C128.977 38 130.687 37.04 130.687 34.91C130.687 33.83 130.132 32.75 128.962 32.405V32.375C129.772 31.94 130.252 31.085 130.252 30.095C130.252 28.34 128.887 27.35 126.952 27.35H123.157V38ZM125.092 31.7V29.015H126.937C127.822 29.015 128.287 29.57 128.287 30.335C128.287 31.1 127.807 31.7 126.967 31.7H125.092ZM125.092 36.335V33.26H127.162C128.137 33.26 128.707 33.905 128.707 34.79C128.707 35.69 128.152 36.335 127.162 36.335H125.092ZM132.649 38H134.569L138.619 31.865C139.009 31.235 139.504 30.215 139.504 30.215H139.534C139.534 30.215 139.429 31.235 139.429 31.865V38H141.349V27.35H139.429L135.409 33.485C135.019 34.115 134.509 35.15 134.509 35.15H134.479C134.479 35.15 134.584 34.13 134.584 33.5V27.35H132.649V38ZM146.358 38H148.278V29.015H151.773V27.35H142.863V29.015H146.358V38ZM153.289 38H157.339C159.289 38 160.639 36.605 160.639 34.565C160.639 32.435 159.244 31.085 157.309 31.085H155.224V27.35H153.289V38ZM155.224 36.335V32.75H156.964C158.029 32.75 158.674 33.47 158.674 34.565C158.674 35.645 158.059 36.335 156.994 36.335H155.224Z" fill="#A8A8A8"/>
</svg>
