<svg width="703" height="145" viewBox="0 0 703 145" fill="none" xmlns="http://www.w3.org/2000/svg">
<path d="M469.795 145H9.31141C4.20516 145 0 140.856 0 135.823V44.553C0 39.6685 1.95241 34.9319 5.55682 31.5276L31.9891 5.47662C35.5935 1.92421 40.2492 0 45.2053 0H505.689C510.795 0 515 4.14447 515 9.17704V100.447C515 105.331 513.048 110.068 509.443 113.472L483.011 139.523C479.406 143.076 474.751 145 469.795 145Z" fill="#00B2BA"/>
<path d="M469.795 145H9.31141C4.20516 145 0 140.856 0 135.823V44.553C0 39.6685 1.95241 34.9319 5.55682 31.5276L31.9891 5.47662C35.5935 1.92421 40.2492 0 45.2053 0H505.689C510.795 0 515 4.14447 515 9.17704V100.447C515 105.331 513.048 110.068 509.443 113.472L483.011 139.523C479.406 143.076 474.751 145 469.795 145Z" fill="url(#paint0_linear)"/>
<path d="M164.1 93.146C164.1 97.7 167.246 101.264 172.064 101.264C174.814 101.264 176.75 100.12 178.07 98.8L176.904 97.238C175.65 98.492 173.868 99.262 172.13 99.262C168.522 99.262 166.344 96.424 166.344 93.124C166.344 89.846 168.478 87.184 172.086 87.184C173.692 87.184 175.43 87.866 176.574 88.878L177.674 87.25C176.178 85.82 174 85.204 171.998 85.204C167.378 85.204 164.1 88.636 164.1 93.146ZM179.479 95.412C179.479 98.8 182.163 101.264 185.485 101.264C188.785 101.264 191.469 98.8 191.469 95.412C191.469 92.046 188.785 89.604 185.463 89.604C182.163 89.604 179.479 92.046 179.479 95.412ZM181.657 95.412C181.657 93.102 183.373 91.452 185.485 91.452C187.575 91.452 189.313 93.102 189.313 95.412C189.313 97.744 187.575 99.416 185.485 99.416C183.373 99.416 181.657 97.744 181.657 95.412ZM198.991 93.146C198.991 97.7 202.137 101.264 206.955 101.264C209.705 101.264 211.641 100.12 212.961 98.8L211.795 97.238C210.541 98.492 208.759 99.262 207.021 99.262C203.413 99.262 201.235 96.424 201.235 93.124C201.235 89.846 203.369 87.184 206.977 87.184C208.583 87.184 210.321 87.866 211.465 88.878L212.565 87.25C211.069 85.82 208.891 85.204 206.889 85.204C202.269 85.204 198.991 88.636 198.991 93.146ZM215.203 101H219.955C222.375 101 224.047 99.9 224.047 97.832C224.047 96.6 223.321 95.522 221.935 95.192V95.17C222.947 94.73 223.519 93.806 223.519 92.728C223.519 90.858 222.045 89.868 219.801 89.868H215.203V101ZM217.337 94.576V91.342H219.361C220.703 91.342 221.341 91.87 221.341 92.882C221.341 93.916 220.703 94.576 219.427 94.576H217.337ZM217.337 99.504V96.006H219.603C221.077 96.006 221.891 96.666 221.891 97.766C221.891 98.8 221.165 99.504 219.625 99.504H217.337ZM225.906 95.434C225.906 98.734 228.326 101.264 231.824 101.264C233.364 101.264 235.058 100.67 236.136 99.68L235.234 98.118C234.354 98.91 233.144 99.416 231.956 99.416C229.954 99.416 228.238 98.118 228.128 95.72H236.224C236.268 95.412 236.312 95.104 236.312 94.818C236.312 91.958 234.64 89.604 231.494 89.604C228.326 89.604 225.906 91.892 225.906 95.434ZM228.194 94.18C228.502 92.332 229.8 91.254 231.45 91.254C232.902 91.254 234.09 92.266 234.156 94.18H228.194ZM241.434 101H243.546V91.694H247.44V89.868H237.562V91.694H241.434V101ZM247.637 101.11C250.915 100.934 252.191 98.338 252.191 93.3V91.628H255.469V101H257.603V89.868H250.145V93.3C250.145 97.326 249.265 98.954 247.637 99.196V101.11ZM259.976 97.964C259.976 100.054 261.758 101.264 263.694 101.264C265.344 101.264 266.708 100.274 267.346 98.998H267.39C267.39 98.998 267.324 99.372 267.324 99.878V101H269.326V93.96C269.326 91.144 267.72 89.604 264.926 89.604C263.364 89.604 261.67 90.176 260.768 90.924L261.626 92.486C262.528 91.848 263.65 91.408 264.75 91.408C266.136 91.408 267.192 92.024 267.192 93.85V94.07H266.62C264.31 94.07 259.976 94.466 259.976 97.964ZM262.11 97.788C262.11 95.742 265.058 95.61 266.642 95.61H267.192V96.028C267.192 97.678 266.07 99.57 264.2 99.57C262.814 99.57 262.11 98.668 262.11 97.788ZM272.48 101H274.614V96.226H280.246V101H282.38V89.868H280.246V94.4H274.614V89.868H272.48V101ZM284.945 95.412C284.945 98.8 287.629 101.264 290.951 101.264C294.251 101.264 296.935 98.8 296.935 95.412C296.935 92.046 294.251 89.604 290.929 89.604C287.629 89.604 284.945 92.046 284.945 95.412ZM287.123 95.412C287.123 93.102 288.839 91.452 290.951 91.452C293.041 91.452 294.779 93.102 294.779 95.412C294.779 97.744 293.041 99.416 290.951 99.416C288.839 99.416 287.123 97.744 287.123 95.412ZM304.413 88.592C306.129 88.592 307.669 87.58 307.669 85.776V85.446H305.975V85.732C305.975 86.722 305.183 87.206 304.413 87.206C303.643 87.206 302.873 86.722 302.873 85.754V85.446H301.157V85.776C301.157 87.58 302.719 88.592 304.413 88.592ZM299.507 101H301.553L306.371 94.356C306.723 93.828 307.273 93.08 307.339 92.882H307.383C307.383 93.058 307.317 93.828 307.317 94.356V101H309.385V89.868H307.317L302.521 96.512C302.147 97.04 301.619 97.81 301.531 98.008H301.487C301.509 97.898 301.553 97.106 301.553 96.512V89.868H299.507V101ZM317.1 99.152C318.31 100.494 320.268 101.264 322.138 101.264C325.064 101.264 327.418 99.482 327.418 96.6C327.418 94.686 326.318 93.344 324.69 92.882V92.838C325.79 92.288 326.934 91.232 326.934 89.34C326.934 86.744 324.932 85.204 322.27 85.204C320.95 85.204 319.212 85.446 317.562 86.81L318.486 88.438C319.63 87.47 320.862 87.118 321.962 87.118C323.876 87.118 324.712 88.262 324.712 89.604C324.712 91.078 323.48 92.112 321.918 92.112H320.378V93.916H322.292C323.986 93.916 325.196 94.862 325.196 96.49C325.196 98.25 323.854 99.306 321.962 99.306C320.51 99.306 319.124 98.558 318.31 97.678L317.1 99.152ZM329.242 97.964C329.242 100.054 331.024 101.264 332.96 101.264C334.61 101.264 335.974 100.274 336.612 98.998H336.656C336.656 98.998 336.59 99.372 336.59 99.878V101H338.592V93.96C338.592 91.144 336.986 89.604 334.192 89.604C332.63 89.604 330.936 90.176 330.034 90.924L330.892 92.486C331.794 91.848 332.916 91.408 334.016 91.408C335.402 91.408 336.458 92.024 336.458 93.85V94.07H335.886C333.576 94.07 329.242 94.466 329.242 97.964ZM331.376 97.788C331.376 95.742 334.324 95.61 335.908 95.61H336.458V96.028C336.458 97.678 335.336 99.57 333.466 99.57C332.08 99.57 331.376 98.668 331.376 97.788ZM341.746 101H343.88V96.182H345.486L348.808 101H351.338L347.18 95.214V95.17L350.898 89.868H348.478L345.442 94.356H343.88V89.868H341.746V101ZM353.24 101H355.286L360.104 94.356C360.456 93.828 361.006 93.08 361.072 92.882H361.116C361.116 93.058 361.05 93.828 361.05 94.356V101H363.118V89.868H361.05L356.254 96.512C355.88 97.04 355.352 97.81 355.264 98.008H355.22C355.242 97.898 355.286 97.106 355.286 96.512V89.868H353.24V101ZM366.388 105.4H368.522V100.34C368.522 99.768 368.434 99.372 368.434 99.372H368.478C369.248 100.56 370.524 101.264 371.932 101.264C374.858 101.264 376.97 98.976 376.97 95.434C376.97 91.98 375.1 89.604 372.086 89.604C370.458 89.604 369.05 90.352 368.346 91.694H368.302C368.302 91.694 368.368 91.32 368.368 90.858V89.868H366.388V105.4ZM368.456 95.478C368.456 92.662 369.996 91.474 371.668 91.474C373.516 91.474 374.814 93.036 374.814 95.456C374.814 97.986 373.362 99.416 371.602 99.416C369.556 99.416 368.456 97.458 368.456 95.478ZM378.875 95.412C378.875 98.8 381.559 101.264 384.881 101.264C388.181 101.264 390.865 98.8 390.865 95.412C390.865 92.046 388.181 89.604 384.859 89.604C381.559 89.604 378.875 92.046 378.875 95.412ZM381.053 95.412C381.053 93.102 382.769 91.452 384.881 91.452C386.971 91.452 388.709 93.102 388.709 95.412C388.709 97.744 386.971 99.416 384.881 99.416C382.769 99.416 381.053 97.744 381.053 95.412ZM393.437 101H398.189C400.609 101 402.281 99.9 402.281 97.832C402.281 96.6 401.555 95.522 400.169 95.192V95.17C401.181 94.73 401.753 93.806 401.753 92.728C401.753 90.858 400.279 89.868 398.035 89.868H393.437V101ZM395.571 94.576V91.342H397.595C398.937 91.342 399.575 91.87 399.575 92.882C399.575 93.916 398.937 94.576 397.661 94.576H395.571ZM395.571 99.504V96.006H397.837C399.311 96.006 400.125 96.666 400.125 97.766C400.125 98.8 399.399 99.504 397.859 99.504H395.571ZM404.141 95.412C404.141 98.8 406.825 101.264 410.147 101.264C413.447 101.264 416.131 98.8 416.131 95.412C416.131 92.046 413.447 89.604 410.125 89.604C406.825 89.604 404.141 92.046 404.141 95.412ZM406.319 95.412C406.319 93.102 408.035 91.452 410.147 91.452C412.237 91.452 413.975 93.102 413.975 95.412C413.975 97.744 412.237 99.416 410.147 99.416C408.035 99.416 406.319 97.744 406.319 95.412ZM423.609 88.592C425.325 88.592 426.865 87.58 426.865 85.776V85.446H425.171V85.732C425.171 86.722 424.379 87.206 423.609 87.206C422.839 87.206 422.069 86.722 422.069 85.754V85.446H420.353V85.776C420.353 87.58 421.915 88.592 423.609 88.592ZM418.703 101H420.749L425.567 94.356C425.919 93.828 426.469 93.08 426.535 92.882H426.579C426.579 93.058 426.513 93.828 426.513 94.356V101H428.581V89.868H426.513L421.717 96.512C421.343 97.04 420.815 97.81 420.727 98.008H420.683C420.705 97.898 420.749 97.106 420.749 96.512V89.868H418.703V101Z" fill="#F5F5F5"/>
<path d="M183.128 64H173.688C170.488 64 168.12 63.136 166.584 61.408C165.048 59.68 164.28 56.9173 164.28 53.12C164.28 49.024 165.005 46.1227 166.456 44.416C168.056 42.5387 170.499 41.6 173.784 41.6H182.776V44.96H175.768C174.275 44.96 173.144 45.0667 172.376 45.28C171.288 45.5787 170.456 46.1653 169.88 47.04C169.048 48.2773 168.632 50.2827 168.632 53.056C168.632 55.5947 168.984 57.408 169.688 58.496C170.627 59.9253 172.579 60.64 175.544 60.64H183.128V64ZM206.494 64H202.75L202.91 51.712C202.91 51.4987 202.846 51.392 202.718 51.392C202.654 51.392 202.558 51.52 202.43 51.776L198.11 62.784C197.747 63.7227 197.022 64.192 195.934 64.192C194.846 64.192 194.12 63.7227 193.758 62.784L189.406 51.776C189.32 51.5413 189.235 51.424 189.15 51.424C189.022 51.424 188.958 51.52 188.958 51.712L189.118 64H185.374V49.28C185.374 48.4907 185.672 47.872 186.27 47.424C186.782 47.04 187.454 46.848 188.286 46.848C189.715 46.848 190.675 47.456 191.166 48.672L195.454 59.456C195.624 59.904 195.784 60.128 195.934 60.128C196.083 60.128 196.243 59.904 196.414 59.456L200.702 48.672C201.192 47.456 202.152 46.848 203.582 46.848C204.414 46.848 205.096 47.04 205.63 47.424C206.206 47.872 206.494 48.4907 206.494 49.28V64ZM226.661 55.456C226.661 58.6987 225.936 61.0027 224.485 62.368C223.184 63.584 220.901 64.192 217.637 64.192C214.395 64.192 212.112 63.584 210.789 62.368C209.339 61.0453 208.613 58.784 208.613 55.584C208.613 52.2987 209.339 49.984 210.789 48.64C212.069 47.4453 214.352 46.848 217.637 46.848C220.923 46.848 223.205 47.4453 224.485 48.64C225.936 49.984 226.661 52.256 226.661 55.456ZM222.789 55.552C222.789 53.376 222.427 51.8827 221.701 51.072C220.891 50.176 219.536 49.728 217.637 49.728C215.675 49.728 214.309 50.176 213.541 51.072C212.837 51.8827 212.485 53.376 212.485 55.552C212.485 57.6213 212.848 59.072 213.573 59.904C214.384 60.8427 215.739 61.312 217.637 61.312C219.493 61.312 220.837 60.8427 221.669 59.904C222.416 59.072 222.789 57.6213 222.789 55.552ZM243.98 49.92H237.612V64H233.868V49.92H227.5V47.04H243.98V49.92ZM261.025 55.168C261.025 58.1547 260.577 60.288 259.681 61.568C258.55 63.1893 256.566 64 253.729 64H248.993V69.44H245.249V49.664C245.249 48.768 245.569 48.0747 246.209 47.584C246.678 47.2213 247.382 47.04 248.321 47.04H254.241C256.374 47.04 258.038 47.6587 259.233 48.896C260.427 50.1333 261.025 52.224 261.025 55.168ZM257.153 55.488C257.153 53.7387 257.003 52.5227 256.705 51.84C256.15 50.56 255.062 49.92 253.441 49.92H249.761C249.611 49.92 249.441 50.0053 249.249 50.176C249.078 50.3253 248.993 50.5067 248.993 50.72V61.12H253.249C254.699 61.12 255.766 60.5973 256.449 59.552C256.918 58.8267 257.153 57.472 257.153 55.488ZM279.732 64H275.988L276.116 51.936C276.116 51.6373 276.052 51.488 275.924 51.488C275.838 51.488 275.689 51.6373 275.476 51.936L268.02 62.848C267.401 63.744 266.59 64.192 265.588 64.192C263.945 64.192 263.124 63.392 263.124 61.792V47.04H266.868L266.708 59.104C266.708 59.4027 266.793 59.552 266.964 59.552C267.049 59.552 267.198 59.4027 267.412 59.104L274.964 48C275.476 47.232 276.244 46.848 277.268 46.848C278.91 46.848 279.732 47.712 279.732 49.44V64ZM297.48 49.92H291.112V64H287.368V49.92H281V47.04H297.48V49.92ZM314.653 53.568C314.653 54.7413 314.386 55.5947 313.853 56.128C313.426 56.5547 312.818 56.768 312.029 56.768H302.173C302.173 57.7493 302.247 58.528 302.397 59.104C302.738 60.448 303.879 61.12 305.821 61.12H314.109V64H304.701C302.247 64 300.519 63.2853 299.517 61.856C298.706 60.704 298.301 58.6453 298.301 55.68C298.301 53.824 298.407 52.448 298.621 51.552C298.898 50.2933 299.463 49.3013 300.317 48.576C301.554 47.5093 303.666 46.976 306.653 46.976C309.234 46.976 311.101 47.3387 312.253 48.064C313.853 49.0667 314.653 50.9013 314.653 53.568ZM310.781 52.896C310.781 51.936 310.429 51.1893 309.725 50.656C309.021 50.1227 307.943 49.856 306.493 49.856C304.786 49.856 303.602 50.2293 302.941 50.976C302.471 51.5093 302.215 52.48 302.173 53.888H309.949C310.503 53.888 310.781 53.5573 310.781 52.896ZM340.857 64H337.113L337.241 51.936C337.241 51.6373 337.177 51.488 337.049 51.488C336.963 51.488 336.814 51.6373 336.601 51.936L329.145 62.848C328.526 63.744 327.715 64.192 326.713 64.192C325.07 64.192 324.249 63.392 324.249 61.792V47.04H327.993L327.833 59.104C327.833 59.4027 327.918 59.552 328.089 59.552C328.174 59.552 328.323 59.4027 328.537 59.104L336.089 48C336.601 47.232 337.369 46.848 338.393 46.848C340.035 46.848 340.857 47.712 340.857 49.44V64ZM358.989 64H355.245V56.704H347.149V64H343.405V47.04H347.149V53.824H355.245V47.04H358.989V64ZM376.761 49.92H370.393V64H366.649V49.92H360.281V47.04H376.761V49.92ZM393.934 53.568C393.934 54.7413 393.667 55.5947 393.134 56.128C392.707 56.5547 392.099 56.768 391.31 56.768H381.454C381.454 57.7493 381.529 58.528 381.678 59.104C382.019 60.448 383.161 61.12 385.102 61.12H393.39V64H383.982C381.529 64 379.801 63.2853 378.798 61.856C377.987 60.704 377.582 58.6453 377.582 55.68C377.582 53.824 377.689 52.448 377.902 51.552C378.179 50.2933 378.745 49.3013 379.598 48.576C380.835 47.5093 382.947 46.976 385.934 46.976C388.515 46.976 390.382 47.3387 391.534 48.064C393.134 49.0667 393.934 50.9013 393.934 53.568ZM390.062 52.896C390.062 51.936 389.71 51.1893 389.006 50.656C388.302 50.1227 387.225 49.856 385.774 49.856C384.067 49.856 382.883 50.2293 382.222 50.976C381.753 51.5093 381.497 52.48 381.454 53.888H389.23C389.785 53.888 390.062 53.5573 390.062 52.896ZM411.837 55.168C411.837 58.1547 411.389 60.288 410.493 61.568C409.363 63.1893 407.379 64 404.541 64H399.805V69.44H396.061V49.664C396.061 48.768 396.381 48.0747 397.021 47.584C397.491 47.2213 398.195 47.04 399.133 47.04H405.053C407.187 47.04 408.851 47.6587 410.045 48.896C411.24 50.1333 411.837 52.224 411.837 55.168ZM407.965 55.488C407.965 53.7387 407.816 52.5227 407.517 51.84C406.963 50.56 405.875 49.92 404.253 49.92H400.573C400.424 49.92 400.253 50.0053 400.061 50.176C399.891 50.3253 399.805 50.5067 399.805 50.72V61.12H404.061C405.512 61.12 406.579 60.5973 407.261 59.552C407.731 58.8267 407.965 57.472 407.965 55.488ZM429.456 59.2C429.456 60.928 429.083 62.1653 428.336 62.912C427.611 63.6373 426.459 64 424.88 64H416.816C415.771 64 415.024 63.808 414.576 63.424C414.15 63.0187 413.936 62.3787 413.936 61.504V49.696C413.936 48.8213 414.192 48.16 414.704 47.712C415.216 47.264 415.974 47.04 416.976 47.04H424.656C426.512 47.04 427.792 47.4453 428.496 48.256C429.094 48.9387 429.392 49.984 429.392 51.392C429.392 52.6933 429.136 53.632 428.624 54.208C428.134 54.7627 427.462 55.0933 426.608 55.2V55.264C427.504 55.3707 428.198 55.744 428.688 56.384C429.2 57.0027 429.456 57.9413 429.456 59.2ZM425.52 51.872C425.52 51.1467 425.35 50.6453 425.008 50.368C424.688 50.0693 424.198 49.92 423.536 49.92H418.608C418.288 49.92 418.054 49.984 417.904 50.112C417.755 50.24 417.68 50.4533 417.68 50.752V53.792H423.472C424.176 53.792 424.688 53.632 425.008 53.312C425.35 52.9707 425.52 52.4907 425.52 51.872ZM425.584 58.816C425.584 58.0693 425.424 57.5253 425.104 57.184C424.784 56.8427 424.262 56.672 423.536 56.672H417.68V60.096C417.68 60.416 417.744 60.672 417.872 60.864C418.022 61.0347 418.288 61.12 418.672 61.12H423.344C424.155 61.12 424.731 60.9493 425.072 60.608C425.414 60.2667 425.584 59.6693 425.584 58.816ZM447.241 58.912C447.241 60.9387 446.815 62.336 445.961 63.104C445.3 63.7013 444.212 64 442.697 64H434.089C433.257 64 432.628 63.7973 432.201 63.392C431.775 62.9867 431.561 62.3253 431.561 61.408V47.04H435.305V53.472H442.953C444.319 53.472 445.375 53.8987 446.121 54.752C446.868 55.6053 447.241 56.992 447.241 58.912ZM443.369 58.688C443.369 57.8133 443.209 57.2053 442.889 56.864C442.591 56.5227 442.089 56.352 441.385 56.352H435.305V59.936C435.305 60.4053 435.38 60.7253 435.529 60.896C435.7 61.0453 435.977 61.12 436.361 61.12H441.257C442.047 61.12 442.591 60.9493 442.889 60.608C443.209 60.2453 443.369 59.6053 443.369 58.688ZM473.375 55.36C473.375 58.6667 472.671 61.0027 471.263 62.368C470.004 63.584 467.732 64.192 464.447 64.192C461.268 64.192 459.007 63.584 457.663 62.368C456.169 61.024 455.476 59.136 455.583 56.704H453.087V64H449.343V47.04H453.087V53.824H455.583C455.711 51.4773 456.415 49.728 457.695 48.576C458.996 47.424 461.247 46.848 464.447 46.848C467.753 46.848 470.025 47.4347 471.263 48.608C472.671 49.9307 473.375 52.1813 473.375 55.36ZM469.503 55.456C469.503 53.344 469.193 51.8933 468.575 51.104C467.849 50.1867 466.473 49.728 464.447 49.728C462.42 49.728 461.055 50.1867 460.351 51.104C459.753 51.8933 459.455 53.4293 459.455 55.712C459.455 57.6747 459.764 59.0613 460.383 59.872C461.108 60.832 462.463 61.312 464.447 61.312C466.431 61.312 467.796 60.832 468.543 59.872C469.183 59.0613 469.503 57.5893 469.503 55.456Z" fill="#F5F5F5"/>
<path d="M109.783 68.295C112.662 70.0486 112.662 74.2276 109.783 75.9811L64.3411 103.664C61.3424 105.491 57.5 103.333 57.5 99.8212L57.5 44.4549C57.5 40.9435 61.3424 38.785 64.3411 40.6119L109.783 68.295Z" fill="white" stroke="white" stroke-width="3"/>
<defs>
<linearGradient id="paint0_linear" x1="515" y1="5.00002" x2="58.5001" y2="145" gradientUnits="userSpaceOnUse">
<stop stop-color="white" stop-opacity="0.45"/>
<stop offset="1" stop-color="white" stop-opacity="0"/>
</linearGradient>
</defs>
</svg>
