<svg width="24" height="24" viewBox="0 0 24 24" fill="none" xmlns="http://www.w3.org/2000/svg">
<path d="M23.3217 6.12001C22.3015 5.88785 22.1817 5.82318 21.938 4.64817C21.8964 4.44818 21.7102 4.30371 21.4934 4.30371C21.2766 4.30371 21.09 4.44818 21.0484 4.64817C20.8051 5.82318 20.6849 5.88785 19.665 6.12001C19.462 6.16606 19.3184 6.33735 19.3184 6.53387C19.3184 6.73038 19.462 6.90167 19.665 6.94772C20.6849 7.17989 20.8051 7.24455 21.0484 8.41956C21.09 8.61955 21.2762 8.76402 21.493 8.76402C21.7098 8.76402 21.8961 8.61955 21.9377 8.41956C22.1813 7.24455 22.3011 7.17989 23.3214 6.94772C23.5251 6.90167 23.668 6.73038 23.668 6.53387C23.668 6.33735 23.5251 6.16638 23.3217 6.12001ZM21.4934 6.97422C21.3736 6.79316 21.2272 6.65153 21.041 6.53387C21.2272 6.41652 21.3732 6.27458 21.4934 6.09351C21.6132 6.27458 21.7595 6.41621 21.9464 6.53387C21.7595 6.65121 21.6132 6.79316 21.4934 6.97422Z" fill="#A8A8A8" stroke="#A8A8A8" stroke-width="0.2"/>
<path d="M16.6092 8.29566C14.935 7.91525 14.7474 7.71683 14.3789 5.93649C14.3359 5.72894 14.1426 5.5791 13.9178 5.5791C13.6929 5.5791 13.4996 5.72894 13.4567 5.93649C13.0882 7.71715 12.9006 7.91525 11.2263 8.29566C11.0155 8.34361 10.8672 8.52089 10.8672 8.72498C10.8672 8.92875 11.0152 9.10603 11.2263 9.15429C12.9006 9.53534 13.0885 9.73375 13.4567 11.5138C13.4996 11.7213 13.6929 11.8712 13.9178 11.8712C14.1426 11.8712 14.3359 11.7213 14.3789 11.5138C14.7474 9.73375 14.9346 9.53534 16.6092 9.15429C16.8197 9.10634 16.9683 8.92875 16.9683 8.72498C16.9687 8.5212 16.82 8.34361 16.6092 8.29566ZM13.9178 9.80473C13.6718 9.29403 13.3405 8.97039 12.8204 8.72529C13.3405 8.4802 13.6714 8.15687 13.9178 7.64618C14.1638 8.15687 14.495 8.48051 15.0148 8.72529C14.495 8.97039 14.1641 9.29403 13.9178 9.80473Z" fill="#A8A8A8" stroke="#A8A8A8" stroke-width="0.2"/>
<path d="M14.7256 1.12491C14.349 1.04195 13.9661 1 13.5879 1C12.2713 1 11.2317 1.50155 10.544 1.83371C10.3128 1.94537 10.0252 2.08385 9.94264 2.093C9.847 2.08385 9.55905 1.94506 9.32816 1.83371C8.64019 1.50186 7.60051 1 6.2843 1C5.90609 1 5.52317 1.04195 5.14663 1.12491C2.4726 1.71321 1 4.14051 1 7.95954C1 10.5152 2.26251 12.4258 2.64677 12.9485C2.63402 13.6778 2.6112 16.6754 3.02432 18.8542C3.52469 21.4887 4.55195 23 5.84199 23C7.51829 23 8.56233 18.1933 8.5724 18.1444C8.92343 16.3584 9.54127 15.2907 9.93593 15.2907C10.3306 15.2907 10.9488 16.3584 11.2995 18.1451C11.3092 18.1936 12.3579 23 14.0299 23C15.3202 23 16.3472 21.4887 16.8475 18.8542C17.2607 16.6758 17.2378 13.6778 17.2251 12.9485C17.6097 12.4258 18.8715 10.5149 18.8715 7.95954C18.8722 4.1402 17.3996 1.71321 14.7256 1.12491ZM16.3196 12.512C16.2495 12.5974 16.2129 12.7034 16.2156 12.8119C16.2163 12.847 16.3025 16.3392 15.8569 18.6876C15.4199 20.9856 14.6118 22.0401 14.0409 22.053C13.4768 21.8742 12.4992 19.0384 12.2898 17.9722C12.0233 16.6174 11.3636 14.344 9.93593 14.344C8.5083 14.344 7.84852 16.6174 7.58172 17.9735C7.37264 19.0425 6.39002 21.8938 5.84165 22.0534C5.26979 22.0534 4.4543 20.9998 4.015 18.6876C3.56933 16.3392 3.65558 12.847 3.65625 12.8119C3.65927 12.7041 3.62202 12.5981 3.55255 12.5126C3.53711 12.4933 2.00645 10.5777 2.00645 7.95922C2.00645 5.60005 2.59106 2.65858 5.37584 2.046C5.67721 1.97975 5.98327 1.946 6.28397 1.946C7.35687 1.946 8.23043 2.36743 8.86806 2.6753C9.30568 2.88633 9.62181 3.039 9.93593 3.039C10.2504 3.039 10.5662 2.88664 11.0035 2.6753C11.6411 2.36743 12.515 1.946 13.5879 1.946C13.8886 1.946 14.1946 1.97944 14.496 2.046C17.2808 2.65858 17.8651 5.59974 17.8651 7.95922C17.8654 10.5777 16.3344 12.4937 16.3196 12.512Z" fill="#A8A8A8" stroke="#A8A8A8" stroke-width="0.2"/>
</svg>
