<svg width="190" height="190" viewBox="0 0 190 190" fill="none" xmlns="http://www.w3.org/2000/svg">
<mask id="mask0" mask-type="alpha" maskUnits="userSpaceOnUse" x="44" y="5" width="141" height="95">
<path d="M181.646 90.0967C180.605 75.0962 175.731 60.6141 167.492 48.0362C159.252 35.4583 147.922 25.2056 134.586 18.2594C121.25 11.3131 106.354 7.9058 91.3248 8.36345C76.2953 8.82111 61.6347 13.1284 48.7461 20.8732L93.9989 96.1812L181.646 90.0967Z" stroke="white" stroke-width="6"/>
</mask>
<g mask="url(#mask0)">
<circle cx="93.9989" cy="96.1812" r="87.8585" transform="rotate(90 93.9989 96.1812)" stroke="#BDBDBD" stroke-width="16" stroke-dasharray="1 72"/>
</g>
<mask id="mask1" mask-type="alpha" maskUnits="userSpaceOnUse" x="-18" y="-13" width="224" height="222">
<path d="M181.857 96.1812C181.857 111.578 177.811 126.705 170.124 140.046C162.436 153.387 151.378 164.474 138.057 172.195C124.735 179.916 109.619 184 94.2214 184.039C78.8242 184.078 63.6872 180.07 50.3268 172.417C36.9665 164.763 25.8522 153.733 18.0973 140.431C10.3425 127.129 6.21956 112.023 6.14158 96.6262C6.0636 81.2292 10.0333 66.082 17.653 52.7023C25.2727 39.3227 36.2748 28.1804 49.5569 20.3919L93.9989 96.1812L181.857 96.1812Z" stroke="white" stroke-width="48"/>
</mask>
<g mask="url(#mask1)">
<circle cx="93.9989" cy="96.1812" r="87.8585" transform="rotate(90 93.9989 96.1812)" stroke="url(#paint0_linear)" stroke-width="11" stroke-linecap="square"/>
</g>
<defs>
<linearGradient id="paint0_linear" x1="40.7024" y1="184.04" x2="134.16" y2="-23.0091" gradientUnits="userSpaceOnUse">
<stop stop-color="#B7B7B7"/>
<stop offset="0.99117" stop-color="white" stop-opacity="0.17"/>
</linearGradient>
</defs>
</svg>
