<svg xmlns="http://www.w3.org/2000/svg" viewBox="0 0 1131.37 1131.37"><defs><style>.cls-1{fill:none;stroke:#A8A8A8;stroke-miterlimit:10;}</style></defs><title>timelapse</title><line class="cls-1" x1="165.69" y1="965.69" x2="965.69" y2="165.69"/><line class="cls-1" x1="165.69" y1="165.69" x2="965.69" y2="965.69"/><line class="cls-1" y1="565.69" x2="1131.37" y2="565.69"/><line class="cls-1" x1="565.69" x2="565.69" y2="1131.37"/><line class="cls-1" x1="172.73" y1="972.61" x2="958.64" y2="158.77"/><line class="cls-1" x1="158.77" y1="172.73" x2="972.61" y2="958.64"/><line class="cls-1" x1="0.09" y1="575.56" x2="1131.28" y2="555.81"/><line class="cls-1" x1="555.81" y1="0.09" x2="575.56" y2="1131.28"/><line class="cls-1" x1="179.89" y1="979.4" x2="951.48" y2="151.97"/><line class="cls-1" x1="151.97" y1="179.89" x2="979.4" y2="951.48"/><line class="cls-1" x1="0.34" y1="585.43" x2="1131.03" y2="545.94"/><line class="cls-1" x1="545.94" y1="0.34" x2="585.43" y2="1131.03"/><line class="cls-1" x1="187.17" y1="986.07" x2="944.2" y2="145.3"/><line class="cls-1" x1="145.3" y1="187.17" x2="986.07" y2="944.2"/><line class="cls-1" x1="0.78" y1="595.29" x2="1130.6" y2="536.08"/><line class="cls-1" x1="536.08" y1="0.78" x2="595.29" y2="1130.6"/><line class="cls-1" x1="194.56" y1="992.61" x2="936.81" y2="138.76"/><line class="cls-1" x1="138.76" y1="194.56" x2="992.61" y2="936.81"/><line class="cls-1" x1="1.38" y1="605.15" x2="1129.99" y2="526.23"/><line class="cls-1" x1="526.23" y1="1.38" x2="605.15" y2="1129.99"/><line class="cls-1" x1="202.07" y1="999.03" x2="929.3" y2="132.35"/><line class="cls-1" x1="132.35" y1="202.07" x2="999.03" y2="929.3"/><line class="cls-1" x1="2.15" y1="614.99" x2="1129.22" y2="516.38"/><line class="cls-1" x1="516.38" y1="2.15" x2="614.99" y2="1129.22"/><line class="cls-1" x1="209.69" y1="1005.31" x2="921.68" y2="126.07"/><line class="cls-1" x1="126.07" y1="209.69" x2="1005.31" y2="921.68"/><line class="cls-1" x1="3.1" y1="624.82" x2="1128.27" y2="506.56"/><line class="cls-1" x1="506.56" y1="3.1" x2="624.82" y2="1128.27"/><line class="cls-1" x1="217.41" y1="1011.45" x2="913.96" y2="119.92"/><line class="cls-1" x1="119.92" y1="217.41" x2="1011.45" y2="913.96"/><line class="cls-1" x1="4.22" y1="634.63" x2="1127.15" y2="496.75"/><line class="cls-1" x1="496.75" y1="4.22" x2="634.63" y2="1127.15"/><line class="cls-1" x1="225.25" y1="1017.46" x2="906.12" y2="113.91"/><line class="cls-1" x1="113.91" y1="225.25" x2="1017.46" y2="906.12"/><line class="cls-1" x1="5.51" y1="644.41" x2="1125.87" y2="486.96"/><line class="cls-1" x1="486.96" y1="5.51" x2="644.41" y2="1125.87"/><line class="cls-1" x1="233.18" y1="1023.33" x2="898.19" y2="108.04"/><line class="cls-1" x1="108.04" y1="233.18" x2="1023.33" y2="898.19"/><line class="cls-1" x1="6.96" y1="654.18" x2="1124.41" y2="477.19"/><line class="cls-1" x1="477.19" y1="6.96" x2="654.18" y2="1124.41"/><line class="cls-1" x1="241.22" y1="1029.07" x2="890.15" y2="102.3"/><line class="cls-1" x1="102.3" y1="241.22" x2="1029.07" y2="890.15"/><line class="cls-1" x1="8.59" y1="663.92" x2="1122.78" y2="467.46"/><line class="cls-1" x1="467.46" y1="8.59" x2="663.92" y2="1122.78"/><line class="cls-1" x1="249.36" y1="1034.66" x2="882.01" y2="96.71"/><line class="cls-1" x1="96.71" y1="249.36" x2="1034.66" y2="882.01"/><line class="cls-1" x1="10.39" y1="673.62" x2="1120.98" y2="457.75"/><line class="cls-1" x1="457.75" y1="10.39" x2="673.62" y2="1120.98"/><line class="cls-1" x1="257.59" y1="1040.11" x2="873.78" y2="91.26"/><line class="cls-1" x1="91.26" y1="257.59" x2="1040.11" y2="873.78"/><line class="cls-1" x1="12.36" y1="683.3" x2="1119.01" y2="448.07"/><line class="cls-1" x1="448.07" y1="12.36" x2="683.3" y2="1119.01"/><line class="cls-1" x1="265.92" y1="1045.41" x2="865.45" y2="85.96"/><line class="cls-1" x1="85.96" y1="265.92" x2="1045.41" y2="865.45"/><line class="cls-1" x1="14.5" y1="692.94" x2="1116.87" y2="438.43"/><line class="cls-1" x1="438.43" y1="14.5" x2="692.94" y2="1116.87"/><line class="cls-1" x1="274.34" y1="1050.57" x2="857.03" y2="80.8"/><line class="cls-1" x1="80.8" y1="274.34" x2="1050.57" y2="857.03"/><line class="cls-1" x1="16.8" y1="702.54" x2="1114.57" y2="428.83"/><line class="cls-1" x1="428.83" y1="16.8" x2="702.54" y2="1114.57"/><line class="cls-1" x1="282.84" y1="1055.58" x2="848.53" y2="75.79"/><line class="cls-1" x1="75.79" y1="282.84" x2="1055.58" y2="848.53"/><line class="cls-1" x1="19.28" y1="712.1" x2="1112.1" y2="419.28"/><line class="cls-1" x1="419.28" y1="19.28" x2="712.1" y2="1112.1"/><line class="cls-1" x1="291.44" y1="1060.45" x2="839.94" y2="70.93"/><line class="cls-1" x1="70.93" y1="291.44" x2="1060.45" y2="839.94"/><line class="cls-1" x1="21.91" y1="721.61" x2="1109.46" y2="409.76"/><line class="cls-1" x1="409.76" y1="21.91" x2="721.61" y2="1109.46"/><line class="cls-1" x1="300.11" y1="1065.16" x2="831.26" y2="66.21"/><line class="cls-1" x1="66.21" y1="300.11" x2="1065.16" y2="831.26"/><line class="cls-1" x1="24.72" y1="731.08" x2="1106.65" y2="400.3"/><line class="cls-1" x1="400.3" y1="24.72" x2="731.08" y2="1106.65"/><line class="cls-1" x1="308.87" y1="1069.71" x2="822.5" y2="61.66"/><line class="cls-1" x1="61.66" y1="308.87" x2="1069.71" y2="822.5"/><line class="cls-1" x1="27.69" y1="740.49" x2="1103.68" y2="390.88"/><line class="cls-1" x1="390.88" y1="27.69" x2="740.49" y2="1103.68"/><line class="cls-1" x1="317.71" y1="1074.12" x2="813.67" y2="57.25"/><line class="cls-1" x1="57.25" y1="317.71" x2="1074.12" y2="813.67"/><line class="cls-1" x1="30.82" y1="749.85" x2="1100.55" y2="381.52"/><line class="cls-1" x1="381.52" y1="30.82" x2="749.85" y2="1100.55"/><line class="cls-1" x1="326.62" y1="1078.37" x2="804.75" y2="53"/><line class="cls-1" x1="53" y1="326.62" x2="1078.37" y2="804.75"/><line class="cls-1" x1="34.12" y1="759.16" x2="1097.26" y2="372.21"/><line class="cls-1" x1="372.21" y1="34.12" x2="759.16" y2="1097.26"/><line class="cls-1" x1="335.6" y1="1082.46" x2="795.77" y2="48.91"/><line class="cls-1" x1="48.91" y1="335.6" x2="1082.46" y2="795.77"/><line class="cls-1" x1="37.57" y1="768.41" x2="1093.8" y2="362.96"/><line class="cls-1" x1="362.96" y1="37.57" x2="768.41" y2="1093.8"/><line class="cls-1" x1="344.65" y1="1086.4" x2="786.72" y2="44.97"/><line class="cls-1" x1="44.97" y1="344.65" x2="1086.4" y2="786.72"/><line class="cls-1" x1="41.19" y1="777.59" x2="1090.18" y2="353.78"/><line class="cls-1" x1="353.78" y1="41.19" x2="777.59" y2="1090.18"/><line class="cls-1" x1="353.78" y1="1090.18" x2="777.59" y2="41.19"/><line class="cls-1" x1="41.19" y1="353.78" x2="1090.18" y2="777.59"/><line class="cls-1" x1="44.97" y1="786.72" x2="1086.4" y2="344.65"/><line class="cls-1" x1="344.65" y1="44.97" x2="786.72" y2="1086.4"/><line class="cls-1" x1="362.96" y1="1093.8" x2="768.41" y2="37.57"/><line class="cls-1" x1="37.57" y1="362.96" x2="1093.8" y2="768.41"/><line class="cls-1" x1="48.91" y1="795.77" x2="1082.46" y2="335.6"/><line class="cls-1" x1="335.6" y1="48.91" x2="795.77" y2="1082.46"/><line class="cls-1" x1="372.21" y1="1097.26" x2="759.16" y2="34.12"/><line class="cls-1" x1="34.11" y1="372.21" x2="1097.26" y2="759.16"/><line class="cls-1" x1="53" y1="804.75" x2="1078.37" y2="326.62"/><line class="cls-1" x1="326.62" y1="53" x2="804.75" y2="1078.37"/><line class="cls-1" x1="381.52" y1="1100.55" x2="749.85" y2="30.82"/><line class="cls-1" x1="30.82" y1="381.52" x2="1100.55" y2="749.85"/><line class="cls-1" x1="57.25" y1="813.67" x2="1074.12" y2="317.71"/><line class="cls-1" x1="317.71" y1="57.25" x2="813.67" y2="1074.12"/><line class="cls-1" x1="390.88" y1="1103.68" x2="740.49" y2="27.69"/><line class="cls-1" x1="27.69" y1="390.88" x2="1103.68" y2="740.49"/><line class="cls-1" x1="61.66" y1="822.5" x2="1069.71" y2="308.87"/><line class="cls-1" x1="308.87" y1="61.66" x2="822.5" y2="1069.71"/><line class="cls-1" x1="400.3" y1="1106.65" x2="731.08" y2="24.72"/><line class="cls-1" x1="24.72" y1="400.3" x2="1106.65" y2="731.08"/><line class="cls-1" x1="66.21" y1="831.26" x2="1065.16" y2="300.11"/><line class="cls-1" x1="300.11" y1="66.21" x2="831.26" y2="1065.16"/><line class="cls-1" x1="409.76" y1="1109.46" x2="721.61" y2="21.91"/><line class="cls-1" x1="21.91" y1="409.76" x2="1109.46" y2="721.61"/><line class="cls-1" x1="70.93" y1="839.94" x2="1060.45" y2="291.44"/><line class="cls-1" x1="291.44" y1="70.93" x2="839.94" y2="1060.45"/><line class="cls-1" x1="419.28" y1="1112.1" x2="712.1" y2="19.28"/><line class="cls-1" x1="19.28" y1="419.28" x2="1112.1" y2="712.1"/><line class="cls-1" x1="75.79" y1="848.53" x2="1055.58" y2="282.84"/><line class="cls-1" x1="282.84" y1="75.79" x2="848.53" y2="1055.58"/><line class="cls-1" x1="428.83" y1="1114.57" x2="702.54" y2="16.8"/><line class="cls-1" x1="16.8" y1="428.83" x2="1114.57" y2="702.54"/><line class="cls-1" x1="80.8" y1="857.03" x2="1050.57" y2="274.34"/><line class="cls-1" x1="274.34" y1="80.8" x2="857.03" y2="1050.57"/><line class="cls-1" x1="438.43" y1="1116.87" x2="692.94" y2="14.5"/><line class="cls-1" x1="14.5" y1="438.43" x2="1116.87" y2="692.94"/><line class="cls-1" x1="85.96" y1="865.45" x2="1045.41" y2="265.92"/><line class="cls-1" x1="265.92" y1="85.96" x2="865.45" y2="1045.41"/><line class="cls-1" x1="448.07" y1="1119.01" x2="683.3" y2="12.36"/><line class="cls-1" x1="12.36" y1="448.07" x2="1119.01" y2="683.3"/><line class="cls-1" x1="91.26" y1="873.78" x2="1040.11" y2="257.59"/><line class="cls-1" x1="257.59" y1="91.26" x2="873.78" y2="1040.11"/><line class="cls-1" x1="457.75" y1="1120.98" x2="673.62" y2="10.39"/><line class="cls-1" x1="10.39" y1="457.75" x2="1120.98" y2="673.62"/><line class="cls-1" x1="96.71" y1="882.01" x2="1034.66" y2="249.36"/><line class="cls-1" x1="249.36" y1="96.71" x2="882.01" y2="1034.66"/><line class="cls-1" x1="467.46" y1="1122.78" x2="663.92" y2="8.59"/><line class="cls-1" x1="8.59" y1="467.46" x2="1122.78" y2="663.92"/><line class="cls-1" x1="102.3" y1="890.15" x2="1029.07" y2="241.22"/><line class="cls-1" x1="241.22" y1="102.3" x2="890.15" y2="1029.07"/><line class="cls-1" x1="477.19" y1="1124.41" x2="654.18" y2="6.96"/><line class="cls-1" x1="6.96" y1="477.19" x2="1124.41" y2="654.18"/><line class="cls-1" x1="108.04" y1="898.19" x2="1023.33" y2="233.18"/><line class="cls-1" x1="233.18" y1="108.04" x2="898.19" y2="1023.33"/><line class="cls-1" x1="486.96" y1="1125.87" x2="644.41" y2="5.51"/><line class="cls-1" x1="5.51" y1="486.96" x2="1125.87" y2="644.41"/><line class="cls-1" x1="113.91" y1="906.12" x2="1017.46" y2="225.25"/><line class="cls-1" x1="225.25" y1="113.91" x2="906.12" y2="1017.46"/><line class="cls-1" x1="496.75" y1="1127.15" x2="634.63" y2="4.22"/><line class="cls-1" x1="4.22" y1="496.75" x2="1127.15" y2="634.63"/><line class="cls-1" x1="119.92" y1="913.96" x2="1011.45" y2="217.41"/><line class="cls-1" x1="217.41" y1="119.92" x2="913.96" y2="1011.45"/><line class="cls-1" x1="506.56" y1="1128.27" x2="624.82" y2="3.1"/><line class="cls-1" x1="3.1" y1="506.56" x2="1128.27" y2="624.82"/><line class="cls-1" x1="126.07" y1="921.68" x2="1005.31" y2="209.69"/><line class="cls-1" x1="209.69" y1="126.07" x2="921.68" y2="1005.31"/><line class="cls-1" x1="516.38" y1="1129.22" x2="614.99" y2="2.15"/><line class="cls-1" x1="2.15" y1="516.38" x2="1129.22" y2="614.99"/><line class="cls-1" x1="132.35" y1="929.3" x2="999.03" y2="202.07"/><line class="cls-1" x1="202.07" y1="132.35" x2="929.3" y2="999.03"/><line class="cls-1" x1="526.23" y1="1129.99" x2="605.15" y2="1.38"/><line class="cls-1" x1="1.38" y1="526.23" x2="1129.99" y2="605.15"/><line class="cls-1" x1="138.76" y1="936.81" x2="992.61" y2="194.56"/><line class="cls-1" x1="194.56" y1="138.76" x2="936.81" y2="992.61"/><line class="cls-1" x1="536.08" y1="1130.6" x2="595.29" y2="0.78"/><line class="cls-1" x1="0.78" y1="536.08" x2="1130.6" y2="595.29"/><line class="cls-1" x1="145.3" y1="944.2" x2="986.07" y2="187.17"/><line class="cls-1" x1="187.17" y1="145.3" x2="944.2" y2="986.07"/><line class="cls-1" x1="545.94" y1="1131.03" x2="585.43" y2="0.34"/><line class="cls-1" x1="0.34" y1="545.94" x2="1131.03" y2="585.43"/><line class="cls-1" x1="151.97" y1="951.48" x2="979.4" y2="179.89"/><line class="cls-1" x1="179.89" y1="151.97" x2="951.48" y2="979.4"/><line class="cls-1" x1="555.81" y1="1131.28" x2="575.56" y2="0.09"/><line class="cls-1" x1="0.09" y1="555.81" x2="1131.28" y2="575.56"/><line class="cls-1" x1="158.77" y1="958.64" x2="972.61" y2="172.73"/><line class="cls-1" x1="172.73" y1="158.77" x2="958.64" y2="972.61"/></svg>